<?xml version="1.0" encoding="iso-8859-1"?>
<!-- Generator: Adobe Illustrator 16.0.0, SVG Export Plug-In . SVG Version: 6.00 Build 0)  -->
<!DOCTYPE svg PUBLIC "-//W3C//DTD SVG 1.1//EN" "http://www.w3.org/Graphics/SVG/1.1/DTD/svg11.dtd">
<svg version="1.1" id="Capa_1" xmlns="http://www.w3.org/2000/svg" xmlns:xlink="http://www.w3.org/1999/xlink" x="0px" y="0px"
	 width="380px" height="380px" viewBox="0 0 380 380" style="enable-background:new 0 0 380 380;" xml:space="preserve">
<g>
	<g>
		<path d="M190,0C85.233,0,0,85.233,0,190c0,104.768,85.233,190,190,190c104.767,0,190-85.232,190-190C380,85.233,294.767,0,190,0z
			 M334.214,140.773c-7.342-4.797-15.862-9.198-25.521-13.122c-9.471-3.845-19.831-7.175-30.876-9.965
			c-4.007-17.562-9.493-33.811-16.331-48.08c-3.407-7.109-7.095-13.601-11.024-19.462
			C289.615,67.138,320.292,100.101,334.214,140.773z M190,328.277c-11.828,0-25.166-13.101-35.68-35.043
			c-3.417-7.129-6.428-14.907-9.017-23.207c14.408,1.632,29.412,2.476,44.697,2.476s30.289-0.844,44.697-2.476
			c-2.588,8.299-5.601,16.078-9.019,23.207C215.166,315.18,201.828,328.277,190,328.277z M190,235.951
			c-18.485,0-36.396-1.333-53.057-3.877c-1.889-13.438-2.869-27.574-2.869-42.074s0.98-28.637,2.869-42.074
			c16.661-2.545,34.571-3.877,53.057-3.877c18.486,0,36.396,1.333,53.057,3.877c1.891,13.437,2.869,27.574,2.869,42.074
			s-0.979,28.637-2.869,42.074C226.396,234.619,208.484,235.951,190,235.951z M95.879,222.461
			c-3.746-1.245-7.355-2.572-10.816-3.979C60.942,208.685,50.146,197.118,50.146,190s10.797-18.686,34.917-28.483
			c3.46-1.405,7.07-2.733,10.816-3.978c-0.996,10.603-1.509,21.46-1.509,32.461S94.883,211.857,95.879,222.461z M190,51.721
			c11.828,0,25.166,13.1,35.68,35.043c3.418,7.129,6.429,14.908,9.019,23.208c-14.408-1.632-29.412-2.476-44.697-2.476
			s-30.289,0.844-44.697,2.476c2.588-8.299,5.6-16.078,9.017-23.208C164.834,64.821,178.172,51.721,190,51.721z M284.12,157.539
			c3.746,1.245,7.354,2.573,10.814,3.978c24.12,9.797,34.917,21.365,34.917,28.483s-10.797,18.686-34.917,28.482
			c-3.46,1.405-7.068,2.732-10.814,3.979c0.997-10.604,1.509-21.46,1.509-32.461S285.117,168.142,284.12,157.539z M129.539,50.145
			c-3.931,5.861-7.618,12.353-11.023,19.462c-6.839,14.269-12.326,30.518-16.332,48.08c-11.045,2.79-21.407,6.12-30.876,9.965
			c-9.66,3.924-18.181,8.324-25.522,13.122C59.708,100.101,90.385,67.138,129.539,50.145z M45.786,239.227
			c7.341,4.798,15.862,9.198,25.522,13.123c9.469,3.845,19.831,7.175,30.876,9.966c4.005,17.562,9.493,33.811,16.332,48.079
			c3.406,7.108,7.092,13.602,11.023,19.461C90.385,312.861,59.708,279.898,45.786,239.227z M250.461,329.855
			c3.931-5.861,7.617-12.354,11.024-19.464c6.838-14.269,12.324-30.518,16.331-48.08c11.045-2.788,21.405-6.118,30.876-9.965
			c9.658-3.924,18.18-8.323,25.521-13.121C320.292,279.898,289.615,312.861,250.461,329.855z"/>
	</g>
</g>
<g>
</g>
<g>
</g>
<g>
</g>
<g>
</g>
<g>
</g>
<g>
</g>
<g>
</g>
<g>
</g>
<g>
</g>
<g>
</g>
<g>
</g>
<g>
</g>
<g>
</g>
<g>
</g>
<g>
</g>
</svg>
