<?xml version="1.0" encoding="iso-8859-1"?>
<!-- Generator: Adobe Illustrator 16.0.0, SVG Export Plug-In . SVG Version: 6.00 Build 0)  -->
<!DOCTYPE svg PUBLIC "-//W3C//DTD SVG 1.1//EN" "http://www.w3.org/Graphics/SVG/1.1/DTD/svg11.dtd">
<svg version="1.1" id="Capa_1" xmlns="http://www.w3.org/2000/svg" xmlns:xlink="http://www.w3.org/1999/xlink" x="0px" y="0px"
	 width="109.858px" height="109.859px" viewBox="0 0 109.858 109.859" style="enable-background:new 0 0 109.858 109.859;"
	 xml:space="preserve">
<g>
	<g>
		<path d="M107.469,67.809h-5.043V21.082h5.043c1.319,0,2.39-1.07,2.39-2.389c0-1.32-1.07-2.391-2.39-2.391h-7.435H69.238v-2.225
			c0-0.649-0.526-1.177-1.178-1.177s-1.177,0.527-1.177,1.177v2.225H38.44h-7.434c-1.32,0-2.39,1.07-2.39,2.391
			c0,1.318,1.07,2.389,2.39,2.389h5.045v3.06c0.53-0.129,1.069-0.196,1.612-0.196c0.491,0,0.97,0.072,1.44,0.177v-3.04H99.37v46.726
			H39.104V37.948c-1.004,0.461-2.024,0.88-3.053,1.271v28.59h-5.045c-1.32,0-2.39,1.069-2.39,2.39c0,1.318,1.07,2.39,2.39,2.39
			h7.434h31.411c-0.074,0.044-0.146,0.09-0.211,0.143c-0.039,0.031-0.079,0.062-0.116,0.097c-0.08,0.072-0.152,0.152-0.219,0.238
			c-0.02,0.023-0.042,0.041-0.061,0.065l-13.032,18.21c-0.64,0.895-0.434,2.138,0.461,2.777c0.894,0.64,2.138,0.435,2.777-0.459
			l9.422-13.166v21.19c0,1.101,0.892,1.991,1.991,1.991c1.101,0,1.991-0.891,1.991-1.991V80.492l9.422,13.166
			c0.389,0.543,1,0.832,1.621,0.832c0.402,0,0.807-0.121,1.158-0.371c0.894-0.642,1.1-1.885,0.46-2.778L72.483,73.13
			c-0.018-0.024-0.041-0.042-0.06-0.065c-0.067-0.086-0.14-0.166-0.22-0.239c-0.037-0.033-0.077-0.063-0.115-0.096
			c-0.066-0.053-0.139-0.099-0.211-0.143h28.155h7.435c1.319,0,2.39-1.07,2.39-2.389C109.858,68.878,108.788,67.809,107.469,67.809z
			"/>
		<path d="M57.538,38.968c-0.908,0-1.69,0.533-2.066,1.299L46.5,40.983c-0.409-0.649-1.129-1.086-1.952-1.086
			c-1.275,0-2.312,1.037-2.312,2.312c0,1.275,1.036,2.312,2.312,2.312c0.915,0,1.701-0.539,2.076-1.313l8.955-0.714
			c0.409,0.657,1.131,1.099,1.959,1.099c0.31,0,0.604-0.063,0.872-0.173l7.115,6.461c-0.013,0.092-0.029,0.183-0.029,0.277
			c0,1.274,1.037,2.313,2.312,2.313c1.273,0,2.312-1.038,2.312-2.313c0-0.126-0.018-0.248-0.037-0.369l5.696-5.162
			c0.262,0.104,0.546,0.165,0.844,0.165c0.548,0,1.044-0.199,1.44-0.519l5.798,2.899c0.122,1.161,1.095,2.073,2.288,2.073
			c1.274,0,2.313-1.037,2.313-2.312c0-0.276-0.059-0.538-0.147-0.785l5.119-6.214c0.158,0.034,0.324,0.056,0.494,0.056
			c1.274,0,2.312-1.037,2.312-2.312s-1.037-2.313-2.312-2.313s-2.312,1.038-2.312,2.313c0,0.275,0.058,0.537,0.146,0.781
			l-5.118,6.218c-0.16-0.035-0.324-0.057-0.493-0.057c-0.535,0-1.022,0.191-1.415,0.497l-5.828-2.913
			c-0.139-1.146-1.104-2.038-2.285-2.038c-1.273,0-2.312,1.038-2.312,2.313c0,0.147,0.017,0.291,0.043,0.432l-5.646,5.118
			c-0.276-0.118-0.58-0.184-0.899-0.184c-0.347,0-0.673,0.082-0.968,0.22l-7.029-6.384c0.021-0.131,0.04-0.264,0.04-0.4
			C59.851,40.006,58.813,38.968,57.538,38.968z M44.548,43.407c-0.662,0-1.199-0.537-1.199-1.198c0-0.662,0.537-1.199,1.199-1.199
			c0.662,0,1.198,0.537,1.198,1.199C45.746,42.869,45.21,43.407,44.548,43.407z M57.538,42.479c-0.662,0-1.197-0.536-1.197-1.198
			s0.537-1.199,1.197-1.199c0.662,0,1.199,0.537,1.199,1.199S58.2,42.479,57.538,42.479z M93.929,36.48
			c0.663,0,1.199,0.536,1.199,1.198s-0.537,1.198-1.199,1.198c-0.661,0-1.198-0.536-1.198-1.198S93.267,36.48,93.929,36.48z
			 M86.15,45.734c0.662,0,1.198,0.537,1.198,1.199c0,0.661-0.536,1.198-1.198,1.198s-1.199-0.537-1.199-1.198
			C84.951,46.271,85.489,45.734,86.15,45.734z M76.623,41.281c0.662,0,1.198,0.536,1.198,1.198c0,0.662-0.536,1.198-1.198,1.198
			c-0.661,0-1.198-0.536-1.198-1.198C75.425,41.817,75.963,41.281,76.623,41.281z M67.809,48.959c0.661,0,1.198,0.536,1.198,1.197
			c0,0.662-0.537,1.199-1.198,1.199c-0.662,0-1.198-0.537-1.198-1.199C66.61,49.495,67.146,48.959,67.809,48.959z"/>
		<circle cx="13.024" cy="14.746" r="8.563"/>
		<path d="M21.587,57.383V38.122c7.659-0.249,15.071-2.064,22.007-5.639c4.603-2.373,0.541-9.3-4.052-6.932
			c-5.951,3.066-12.271,4.425-18.808,4.56c-1.106-1.931-3.184-3.235-5.57-3.235h-4.281c-3.548,0-6.423,2.876-6.423,6.423v24.084
			c0,1.646,0.624,3.142,1.642,4.278C7.029,72.5,6.641,83.285,0.639,92.822c-2.768,4.395,4.183,8.42,6.932,4.051
			c6.356-10.096,7.445-21.533,6.712-33.066h0.246c2.568,8.109,3.676,16.403,3.758,24.977c0.051,5.174,8.078,5.18,8.028,0
			c-0.097-10.172-1.507-20.168-4.948-29.76C21.506,58.498,21.587,57.951,21.587,57.383z"/>
	</g>
</g>
<g>
</g>
<g>
</g>
<g>
</g>
<g>
</g>
<g>
</g>
<g>
</g>
<g>
</g>
<g>
</g>
<g>
</g>
<g>
</g>
<g>
</g>
<g>
</g>
<g>
</g>
<g>
</g>
<g>
</g>
</svg>
