<?xml version="1.0" standalone="no"?>
<!DOCTYPE svg PUBLIC "-//W3C//DTD SVG 20010904//EN"
 "http://www.w3.org/TR/2001/REC-SVG-20010904/DTD/svg10.dtd">
<svg version="1.0" xmlns="http://www.w3.org/2000/svg"
 width="256.000000pt" height="256.000000pt" viewBox="0 0 256.000000 256.000000"
 preserveAspectRatio="xMidYMid meet">

<g transform="translate(0.000000,256.000000) scale(0.100000,-0.100000)"
fill="#000000" stroke="none">
<path d="M1155 2554 c-22 -2 -84 -14 -139 -25 -251 -52 -451 -161 -637 -348
-188 -187 -297 -389 -355 -656 -27 -124 -24 -380 5 -510 56 -245 159 -440 326
-614 643 -674 1763 -459 2112 406 185 461 81 996 -266 1356 -239 248 -535 380
-876 391 -71 2 -148 2 -170 0z m410 -674 c377 -11 412 -17 475 -80 29 -29 45
-58 62 -112 22 -70 23 -87 23 -408 0 -370 -6 -417 -66 -499 -65 -91 -153 -102
-784 -102 -431 1 -596 8 -675 32 -68 20 -115 74 -142 161 -22 70 -23 87 -23
408 0 324 1 337 24 410 18 58 32 84 62 112 63 60 110 69 417 77 147 4 274 8
282 9 8 1 164 -3 345 -8z"/>
<path d="M1110 1295 l0 -234 118 61 c350 184 336 175 316 186 -11 5 -110 57
-220 116 -111 58 -205 106 -208 106 -3 0 -6 -106 -6 -235z"/>
</g>
</svg>
